<?xml version="1.0" encoding="UTF-8"?>
<svg width="496px" height="496px" viewBox="0 0 496 496" version="1.1" xmlns="http://www.w3.org/2000/svg" xmlns:xlink="http://www.w3.org/1999/xlink">
    <!-- Generator: Sketch 50.2 (55047) - http://www.bohemiancoding.com/sketch -->
    <title>customer-service</title>
    <desc>Created with Sketch.</desc>
    <defs></defs>
    <g id="Page-1" stroke="none" stroke-width="1" fill="none" fill-rule="evenodd">
        <g id="customer-service" fill="#EB6D2F" fill-rule="nonzero">
            <path d="M402.524,432 L384.004,376.432 C377.532,357.032 361.02,342.712 340.892,339.048 L287.428,329.32 L287.428,325.176 C296.732,319.776 304.828,312.552 311.276,304 L327.428,304 C340.66,304 351.428,293.232 351.428,280 L351.428,184 C351.428,126.656 304.772,80 247.428,80 C190.084,80 143.428,126.656 143.428,184 L143.428,240 C143.428,255.424 154.396,268.328 168.94,271.336 C173.428,294.328 187.796,313.784 207.428,325.176 L207.428,329.32 L153.956,339.048 C133.836,342.712 117.316,357.032 110.852,376.432 L107.652,386.04 L80.404,358.792 C77.284,355.672 77.284,350.592 80.404,347.472 L112.004,315.88 L52.692,256.568 L16.98,292.28 C6.404,302.856 0.58,316.92 0.58,331.88 C0.58,346.84 6.404,360.896 16.98,371.472 L125.1,479.592 C135.676,490.168 149.74,496 164.7,496 C179.66,496 193.716,490.168 204.044,479.832 L243.012,444.128 L230.86,432 L402.524,432 Z M335.428,280 C335.428,284.416 331.836,288 327.428,288 L320.7,288 C323.02,282.712 324.78,277.136 325.916,271.336 C329.34,270.624 332.492,269.264 335.428,267.552 L335.428,280 Z M327.428,253.776 L327.428,226.224 C332.188,229 335.428,234.104 335.428,240 C335.428,245.896 332.188,251 327.428,253.776 Z M167.428,253.776 C162.668,251 159.428,245.896 159.428,240 C159.428,234.104 162.668,229 167.428,226.224 L167.428,253.776 Z M167.428,200 L167.428,209.136 C164.58,209.88 161.908,211 159.428,212.448 L159.428,184 C159.428,135.48 198.908,96 247.428,96 C295.948,96 335.428,135.48 335.428,184 L335.428,212.448 C332.948,211 330.276,209.872 327.428,209.136 L327.428,200 L319.428,200 C295.772,200 273.532,190.784 256.796,174.056 L247.428,164.688 L238.06,174.056 C221.324,190.784 199.084,200 175.428,200 L167.428,200 Z M183.428,256 L183.428,215.696 C207.452,213.888 229.852,203.976 247.428,187.264 C265.004,203.976 287.404,213.896 311.428,215.696 L311.428,256 C311.428,267.664 308.244,278.576 302.772,288 L247.428,288 L247.428,304 L289.62,304 C278.34,313.928 263.596,320 247.428,320 C212.14,320 183.428,291.288 183.428,256 Z M271.428,332.312 L271.428,332.688 L247.428,356.688 L223.428,332.688 L223.428,332.312 C231.012,334.696 239.068,336 247.428,336 C255.788,336 263.844,334.696 271.428,332.312 Z M126.02,381.488 C130.636,367.632 142.436,357.4 156.812,354.776 L212.732,344.616 L247.428,379.312 L282.116,344.624 L338.028,354.784 C352.404,357.408 364.204,367.632 368.82,381.496 L380.332,416 L214.86,416 L183.7,384.84 L149.076,416.16 C146.06,419.192 140.788,419.192 137.764,416.16 L120.292,398.688 L126.02,381.488 Z M52.684,279.192 L89.372,315.88 L80.684,324.568 L43.996,287.88 L52.684,279.192 Z M192.964,468.296 C185.412,475.832 175.364,480 164.684,480 C154.004,480 143.956,475.832 136.396,468.28 L28.276,360.168 C20.724,352.616 16.564,342.568 16.564,331.888 C16.564,321.2 20.724,311.152 28.276,303.6 L32.676,299.2 L69.364,335.888 L69.076,336.176 C59.724,345.536 59.724,360.76 69.076,370.12 L126.444,427.488 C130.98,432.016 137.004,434.52 143.42,434.52 C149.836,434.52 155.86,432.024 160.1,427.768 L160.7,427.232 L197.556,464.088 L192.964,468.296 Z M209.364,453.256 L172.588,416.48 L183.156,406.928 L219.868,443.64 L209.364,453.256 Z" id="Shape"></path>
            <path d="M471.428,0 L359.428,0 C346.196,0 335.428,10.768 335.428,24 L335.428,88 C335.428,101.232 346.196,112 359.428,112 L380.796,112 L372.524,160.248 L449.724,112 L471.428,112 C484.66,112 495.428,101.232 495.428,88 L495.428,24 C495.428,10.768 484.66,0 471.428,0 Z M479.428,88 C479.428,92.408 475.836,96 471.428,96 L445.132,96 L394.324,127.752 L399.772,96 L359.428,96 C355.02,96 351.428,92.408 351.428,88 L351.428,24 C351.428,19.592 355.02,16 359.428,16 L471.428,16 C475.836,16 479.428,19.592 479.428,24 L479.428,88 Z" id="Shape"></path>
            <rect id="Rectangle-path" x="367.428" y="32" width="96" height="16"></rect>
            <rect id="Rectangle-path" x="367.428" y="64" width="64" height="16"></rect>
            <rect id="Rectangle-path" x="447.428" y="64" width="16" height="16"></rect>
            <path d="M247.428,24 C142.9,24 52.86,96.304 29.452,197.16 L14.292,171.888 L0.572,180.12 L28.692,226.976 L75.548,198.856 L67.316,185.136 L45.636,198.144 C68.308,105.88 151.276,40 247.428,40 C268.444,40 289.18,43.12 309.06,49.28 L313.796,34 C292.38,27.36 270.052,24 247.428,24 Z" id="Shape"></path>
            <path d="M491.54,177.136 L444.684,149.016 L416.572,195.88 L430.292,204.112 L444.292,180.776 C451.66,202.336 455.428,224.888 455.428,248 C455.428,295.576 438.948,342.088 409.036,378.96 L421.46,389.04 C453.684,349.328 471.428,299.232 471.428,248 C471.428,223.528 467.484,199.632 459.796,176.752 L483.308,190.856 L491.54,177.136 Z" id="Shape"></path>
        </g>
    </g>
</svg>